<svg width="1872" height="261" viewBox="0 0 1872 261" fill="none" xmlns="http://www.w3.org/2000/svg">
<path d="M97.9564 202.31V29.9092H165.532V4.79675H0V29.9092H67.8596V202.31H97.9564Z" fill="black"/>
<path d="M215.868 206.825C254.199 206.825 275.209 184.816 278.049 159.139H249.656C246.532 177.762 232.052 184.816 216.152 184.816C193.437 184.816 176.969 167.604 176.401 139.952H279.184V134.027C279.184 90.0097 255.902 61.2292 214.448 61.2292C176.117 61.2292 147.724 91.1384 147.724 133.463C147.724 180.866 174.698 206.825 215.868 206.825ZM176.685 119.919C178.673 98.7568 193.153 82.6735 214.448 82.6735C236.311 82.6735 249.372 97.6281 249.372 119.919H176.685Z" fill="black"/>
<path d="M320.175 202.31L347.148 163.654C349.42 159.986 352.259 155.754 354.814 151.803C357.654 155.754 360.209 159.986 362.481 163.654L388.886 202.31H422.106L370.715 132.052L420.403 65.7438H388.318L363.9 101.014C361.061 104.964 358.506 108.632 356.234 112.583C353.963 108.632 351.407 104.964 348.568 101.014L324.718 65.7438H291.498L339.766 132.616L288.091 202.31H320.175Z" fill="black"/>
<path d="M497.983 204.285C505.081 204.285 511.327 203.157 515.586 202.028V179.455C511.895 180.019 508.772 180.302 505.365 180.302C492.304 180.302 485.206 173.812 485.206 158.575V88.3168H515.586V65.7438H485.206V18.9049H456.812V65.7438H428.987V88.3168H456.812V161.961C456.812 192.435 474.132 204.285 497.983 204.285Z" fill="black"/>
<path d="M591.576 206.825C611.735 206.825 626.783 197.514 633.314 183.405C633.03 187.074 633.03 191.306 633.03 194.974V202.31H660.571V65.7438H632.746V143.338C632.746 169.297 620.253 184.534 599.526 184.534C579.083 184.534 570.565 170.708 570.565 147.289V65.7438H542.172V152.65C542.172 187.638 561.195 206.825 591.576 206.825Z" fill="black"/>
<path d="M728.368 202.31V131.77C728.368 101.578 743.701 88.3168 768.119 88.3168C772.094 88.3168 774.649 88.5989 776.637 89.1632V61.5114C774.365 61.2292 772.094 61.2292 770.106 61.2292C749.095 61.2292 734.899 73.6443 728.085 89.1632C728.368 84.0843 728.368 78.7232 728.368 73.3622V65.7438H700.259V202.31H728.368Z" fill="black"/>
<path d="M856.932 206.825C895.263 206.825 916.273 184.816 919.113 159.139H890.72C887.596 177.762 873.116 184.816 857.216 184.816C834.501 184.816 818.033 167.604 817.465 139.952H920.248V134.027C920.248 90.0097 896.966 61.2292 855.512 61.2292C817.181 61.2292 788.788 91.1384 788.788 133.463C788.788 180.866 815.762 206.825 856.932 206.825ZM817.749 119.919C819.737 98.7568 834.217 82.6735 855.512 82.6735C877.375 82.6735 890.436 97.6281 890.436 119.919H817.749Z" fill="black"/>
<path d="M1088.76 206.825C1138.45 206.825 1167.13 180.302 1167.13 146.16C1167.13 115.122 1143.85 97.9103 1112.33 91.1384L1077.97 83.8022C1055.83 78.7232 1043.62 70.5405 1043.62 54.1751C1043.62 36.9632 1061.79 25.3946 1085.92 25.3946C1114.32 25.3946 1130.79 40.3492 1132.21 61.7935H1163.15C1160.88 24.5481 1132.77 0 1087.06 0C1044.19 0 1012.67 23.7016 1012.67 56.7146C1012.67 87.4703 1037.37 105.246 1068.04 111.736L1099.27 118.508C1122.27 123.305 1136.18 131.77 1136.18 149.264C1136.18 169.862 1118.29 181.712 1089.62 181.712C1060.09 181.712 1038.51 165.347 1036.8 137.131H1005.86C1007.28 179.737 1038.79 206.825 1088.76 206.825Z" fill="black"/>
<path d="M1246.5 206.825C1266.66 206.825 1281.71 197.514 1288.24 183.405C1287.96 187.074 1287.96 191.306 1287.96 194.974V202.31H1315.5V65.7438H1287.67V143.338C1287.67 169.297 1275.18 184.534 1254.45 184.534C1234.01 184.534 1225.49 170.708 1225.49 147.289V65.7438H1197.1V152.65C1197.1 187.638 1216.12 206.825 1246.5 206.825Z" fill="black"/>
<path d="M1383.3 261V195.538C1383.3 191.588 1383.3 187.92 1383.01 183.405C1391.81 197.231 1406.29 206.825 1427.31 206.825C1463.93 206.825 1490.34 177.762 1490.34 134.027C1490.34 91.7027 1466.49 61.2292 1428.16 61.2292C1407.15 61.2292 1390.96 71.6692 1383.01 84.6486C1383.3 80.6984 1383.3 77.5946 1383.3 74.2086V65.7438H1355.19V261H1383.3ZM1421.63 184.816C1398.34 184.816 1381.88 164.218 1381.88 134.027C1381.88 102.989 1398.63 83.52 1421.63 83.52C1445.76 83.52 1461.09 104.118 1461.09 134.027C1461.09 163.936 1445.48 184.816 1421.63 184.816Z" fill="black"/>
<path d="M1549.39 261V195.538C1549.39 191.588 1549.39 187.92 1549.1 183.405C1557.9 197.231 1572.38 206.825 1593.39 206.825C1630.02 206.825 1656.43 177.762 1656.43 134.027C1656.43 91.7027 1632.58 61.2292 1594.25 61.2292C1573.24 61.2292 1557.05 71.6692 1549.1 84.6486C1549.39 80.6984 1549.39 77.5946 1549.39 74.2086V65.7438H1521.28V261H1549.39ZM1587.72 184.816C1564.43 184.816 1547.97 164.218 1547.97 134.027C1547.97 102.989 1564.72 83.52 1587.72 83.52C1611.85 83.52 1627.18 104.118 1627.18 134.027C1627.18 163.936 1611.57 184.816 1587.72 184.816Z" fill="black"/>
<path d="M1687.36 4.79675V202.31H1715.47V4.79675H1687.36Z" fill="black"/>
<path d="M1798.75 261L1872 65.7438H1842.47L1813.23 153.214C1811.24 158.575 1809.54 163.936 1807.83 169.862C1805.84 163.936 1803.86 158.293 1801.87 153.214L1769.5 65.7438H1738.27L1792.78 198.924L1768.65 261H1798.75Z" fill="black"/>
</svg>
