<svg width="24" height="24" viewBox="0 0 24 24" fill="none" xmlns="http://www.w3.org/2000/svg">
<g clip-path="url(#clip0_525_848)">
<path d="M18.2021 4.03589C18.8896 4.36364 19.6051 4.70074 20.4413 5.18767L20.8873 5.44986L21.4169 4.51346L20.9616 4.25127C20.2052 3.81157 19.4268 3.41151 18.6295 3.05267C16.9778 2.32045 15.4183 1.39316 13.9837 0.290285L13.5656 0L12.9431 0.842762L13.3612 1.15177C14.8573 2.30065 16.4821 3.26864 18.2021 4.03589V4.03589Z" fill="white"/>
<path d="M10.9175 3.73628C12.4908 4.98557 14.214 6.03009 16.0464 6.84514C17.8157 7.62059 19.4773 8.62472 20.9895 9.83226C21.7421 10.4128 22.3647 10.9372 22.9036 11.4429L23.2845 11.7987L24 11.0309L23.619 10.675C22.9807 10.0925 22.314 9.54249 21.6213 9.02696C20.0475 7.77356 18.3207 6.72875 16.4831 5.9181C14.7166 5.1312 13.0583 4.11776 11.5493 2.90289C10.6718 2.23568 9.83696 1.51321 9.04991 0.739795L8.67824 0.365234L7.94421 1.11436L8.31587 1.47955C9.13236 2.28922 10.0015 3.04314 10.9175 3.73628V3.73628Z" fill="white"/>
<path d="M19.4751 11.8361C17.9065 10.5674 16.1789 9.5127 14.3369 8.69914C12.5757 7.92294 10.9207 6.92218 9.41234 5.72138C8.10043 4.74101 6.89788 3.62014 5.82581 2.37842L5.49132 1.97577L4.70154 2.66871L5.04532 3.062C6.15372 4.35974 7.40005 5.531 8.76194 6.55478C10.3349 7.80203 12.0582 8.84348 13.8909 9.65427C15.657 10.4302 17.3155 11.4344 18.8247 12.6414C20.1063 13.5961 21.2836 14.6853 22.3369 15.8907L22.6806 16.284L23.4611 15.5911L23.1173 15.1978C22.0257 13.9495 20.8047 12.8225 19.4751 11.8361V11.8361Z" fill="white"/>
<path d="M17.3473 14.6454C15.7711 13.3955 14.0447 12.3509 12.2091 11.5365C10.442 10.7547 8.78341 9.74423 7.27528 8.53065C5.81809 7.45549 4.50349 6.19672 3.36355 4.78504L3.02905 4.38239L2.22998 5.0566L2.56448 5.45925C3.75972 6.91936 5.12981 8.22465 6.64346 9.34532C8.21832 10.5972 9.94494 11.6419 11.7817 12.4542C13.5467 13.2323 15.2049 14.2363 16.7155 15.4413C18.1709 16.5219 19.488 17.78 20.6365 19.1869L20.971 19.5896L21.7608 18.906L21.4263 18.5127C20.2302 17.0589 18.8601 15.7599 17.3473 14.6454V14.6454Z" fill="white"/>
<path d="M15.2102 17.4545C13.6314 16.2009 11.9019 15.1532 10.0627 14.3363C8.29906 13.561 6.64354 12.5568 5.13815 11.3492C3.86625 10.386 2.6956 9.29411 1.64454 8.0905L1.30075 7.71594L0.520264 8.40888L0.86405 8.80217C1.95025 10.0546 3.16491 11.1878 4.48775 12.1826C6.06352 13.438 7.79368 14.483 9.63525 15.2914C11.3964 16.0676 13.0514 17.0684 14.5598 18.2692C15.874 19.2468 17.0768 20.3679 18.1463 21.6122L18.4901 22.0148L19.2799 21.3219L18.9361 20.9286C17.8206 19.64 16.5715 18.4754 15.2102 17.4545V17.4545Z" fill="white"/>
<path d="M13.0825 20.2637C11.5083 19.0083 9.78166 17.9604 7.94425 17.1455C6.17814 16.3695 4.51963 15.3654 3.01045 14.1584C2.34201 13.6556 1.70003 13.118 1.08711 12.5478L0.706156 12.192L0 12.9598L0.380953 13.3156C1.01857 13.9077 1.68531 14.4671 2.37863 14.9918C3.94851 16.246 5.67237 17.291 7.50755 18.1007C9.27669 18.8802 10.9382 19.8875 12.4506 21.0971C13.3274 21.7583 14.1593 22.4778 14.9408 23.2509L15.3124 23.6254L16.0372 22.8763L15.6376 22.5111C14.8345 21.7077 13.981 20.957 13.0825 20.2637V20.2637Z" fill="white"/>
<path d="M5.79794 19.9641C5.03238 19.6227 4.28495 19.2413 3.55868 18.8217L3.10339 18.5595L2.58307 19.4959L3.03835 19.7581C3.79218 20.1854 4.56752 20.573 5.36123 20.9192C7.01664 21.644 8.57701 22.5718 10.007 23.6816L10.4251 24L11.0476 23.1572L10.6295 22.8482C9.14232 21.691 7.51963 20.7224 5.79794 19.9641V19.9641Z" fill="white"/>
</g>
<defs>
<clipPath id="clip0_525_848">
<rect width="24" height="24" fill="white"/>
</clipPath>
</defs>
</svg>
