<svg id="Layer_1" data-name="Layer 1" xmlns="http://www.w3.org/2000/svg" viewBox="0 0 114.78 27.05"><path d="M33.5,9.67H31V8.38h6.37V9.67H34.89v7.47H33.5Z"/><path d="M43.13,14.34H38.64c.11,1.1.73,1.75,1.66,1.75A1.76,1.76,0,0,0,42,15l1.08.43a2.79,2.79,0,0,1-2.8,1.81,3,3,0,0,1-3-3.25,3,3,0,0,1,3-3.26,2.87,2.87,0,0,1,2.89,3.06Zm-1.35-1.08a1.5,1.5,0,0,0-1.54-1.38,1.57,1.57,0,0,0-1.54,1.38Z"/><path d="M45.65,13.75l-1.82-2.92h1.41l1.11,1.8,1.13-1.8h1.38l-1.8,2.92,2.1,3.39H47.78l-1.43-2.27-1.43,2.27H43.55Z"/><path d="M50.62,12h-1V10.83h1V9.12l1.32-.84v2.55h1.68V12H51.94v3.08c0,.74.29,1,.84,1a1.33,1.33,0,0,0,.67-.16L53.76,17a2.31,2.31,0,0,1-1,.23,1.94,1.94,0,0,1-2.1-2.2Z"/><path d="M54.74,10.83h1.33v4.09c0,.79.36,1.17,1,1.17.9,0,1.63-1,1.63-2.67V10.83H60v6.31H58.71V16a2.47,2.47,0,0,1-2,1.2,1.8,1.8,0,0,1-1.94-1.95Z"/><path d="M61.74,10.83h1.32v1.05a2.11,2.11,0,0,1,1.87-1.15,2.59,2.59,0,0,1,.81.15l-.25,1.23a1.35,1.35,0,0,0-.73-.19c-1,0-1.7.95-1.7,2.92v2.3H61.74Z"/><path d="M72.11,14.34H67.62c.11,1.1.73,1.75,1.66,1.75A1.73,1.73,0,0,0,70.93,15l1.09.43a2.79,2.79,0,0,1-2.8,1.81,3,3,0,0,1-3-3.25,3,3,0,0,1,3-3.26,2.87,2.87,0,0,1,2.89,3.06Zm-1.35-1.08a1.5,1.5,0,0,0-1.54-1.38,1.57,1.57,0,0,0-1.54,1.38Z"/><path d="M76.88,14.11c.29,1.1.86,1.84,1.83,1.84A1.15,1.15,0,0,0,80,14.71a1,1,0,0,0-.22-.66,4,4,0,0,0-1.53-1L78,12.94a2.59,2.59,0,0,1-1.74-2.41A2.24,2.24,0,0,1,78.6,8.28,2.37,2.37,0,0,1,81,9.79l-1.11.72a1.28,1.28,0,0,0-1.25-.94,1,1,0,0,0-1,.91,1,1,0,0,0,.23.67,3.88,3.88,0,0,0,1.54.95c1.27.59,2,1.25,2,2.55a2.52,2.52,0,0,1-2.7,2.59,3,3,0,0,1-2.93-2.43Z"/><path d="M82.71,10.83H84v4.09c0,.79.37,1.17,1,1.17.9,0,1.62-1,1.62-2.67V10.83H88v6.31H86.67V16a2.44,2.44,0,0,1-2,1.2,1.79,1.79,0,0,1-1.94-1.95Z"/><path d="M89.7,10.83H91v.73a2,2,0,0,1,1.66-.83c1.84,0,2.86,1.29,2.86,3.26s-1,3.25-2.86,3.25A2.13,2.13,0,0,1,91,16.46v3.23H89.7Zm2.83,1.05c-1,0-1.63.82-1.63,2.11s.67,2.1,1.63,2.1,1.64-.81,1.64-2.1S93.52,11.88,92.53,11.88Z"/><path d="M96.94,10.83h1.33v.73a2,2,0,0,1,1.67-.83c1.83,0,2.85,1.29,2.85,3.26s-1,3.25-2.85,3.25a2.14,2.14,0,0,1-1.67-.78v3.23H96.94Zm2.83,1.05c-1,0-1.62.82-1.62,2.11s.66,2.1,1.62,2.1,1.64-.81,1.64-2.1S100.76,11.88,99.77,11.88Z"/><path d="M104.2,8.28h1.32v8.86H104.2Z"/><path d="M112.25,10.83,109,19.69h-1.28l1-2.86-2.28-6h1.34l1.56,4.23,1.52-4.23Z"/><path d="M19.76,4.67c.74.35,1.51.71,2.41,1.23l.48.28.57-1-.49-.28a27.32,27.32,0,0,0-2.51-1.28,24.53,24.53,0,0,1-5-2.95L14.77.36l-.67.9.45.33A25.88,25.88,0,0,0,19.76,4.67Z"/><path d="M11.92,4.35a25.66,25.66,0,0,0,5.52,3.32,23.94,23.94,0,0,1,5.32,3.19c.81.62,1.48,1.18,2.06,1.72l.41.38.77-.82-.41-.38A27.86,27.86,0,0,0,23.44,10a25.25,25.25,0,0,0-5.53-3.32A24.15,24.15,0,0,1,12.6,3.46,28.06,28.06,0,0,1,9.91,1.15l-.4-.4-.79.8.4.39A27.74,27.74,0,0,0,11.92,4.35Z"/><path d="M21.13,13A24.63,24.63,0,0,0,15.6,9.65a24.18,24.18,0,0,1-5.3-3.18A24.31,24.31,0,0,1,6.44,2.9l-.36-.43-.85.74.37.42a25,25,0,0,0,4,3.73,25.51,25.51,0,0,0,5.52,3.31,23.92,23.92,0,0,1,5.31,3.19,24.22,24.22,0,0,1,3.78,3.47l.37.42.84-.74-.37-.42A24.91,24.91,0,0,0,21.13,13Z"/><path d="M18.84,16a25.67,25.67,0,0,0-5.53-3.32A23.92,23.92,0,0,1,8,9.47a22.77,22.77,0,0,1-4.21-4l-.36-.43-.86.72.36.43a24.48,24.48,0,0,0,4.39,4.15,25.43,25.43,0,0,0,5.53,3.32,24.15,24.15,0,0,1,5.31,3.19,23.56,23.56,0,0,1,4.22,4l.36.43.85-.73-.36-.42A24.44,24.44,0,0,0,18.84,16Z"/><path d="M16.54,19A25.69,25.69,0,0,0,11,15.67,23.77,23.77,0,0,1,5.7,12.48,25.07,25.07,0,0,1,1.94,9L1.57,8.6l-.84.74.37.42A25.18,25.18,0,0,0,5,13.37a25.09,25.09,0,0,0,5.54,3.32,24.18,24.18,0,0,1,5.3,3.18,23.83,23.83,0,0,1,3.86,3.57l.37.43.85-.74-.37-.42A25.61,25.61,0,0,0,16.54,19Z"/><path d="M14.25,22a25.39,25.39,0,0,0-5.53-3.33,23.92,23.92,0,0,1-5.31-3.19,25.84,25.84,0,0,1-2.07-1.72l-.41-.38-.76.82.41.38a27.86,27.86,0,0,0,2.15,1.79,25.07,25.07,0,0,0,5.52,3.32,24.07,24.07,0,0,1,5.32,3.2,26.41,26.41,0,0,1,2.68,2.3l.4.4.78-.8L17,24.4A28.46,28.46,0,0,0,14.25,22Z"/><path d="M6.41,21.68A26,26,0,0,1,4,20.46l-.49-.28-.56,1,.49.28A26.89,26.89,0,0,0,5.94,22.7a23.62,23.62,0,0,1,5,2.95l.45.34.67-.9-.45-.33A24.68,24.68,0,0,0,6.41,21.68Z"/></svg>